HIERARCHY
ROOT Hips
{
  OFFSET 5.84602e-005 68.8428 3.50346
  CHANNELS 6 Xposition Yposition Zposition Zrotation Xrotation Yrotation
  JOINT Spine
  {
    OFFSET 0 8.597 -4.6522
    CHANNELS 3 Zrotation Xrotation Yrotation
    JOINT Spine1
    {
      OFFSET 0 7.8454 0.4098
      CHANNELS 3 Zrotation Xrotation Yrotation
      JOINT Spine2
      {
        OFFSET 0 9.7078 -2.1609
        CHANNELS 3 Zrotation Xrotation Yrotation
        JOINT Neck
        {
          OFFSET 0 21.8761 -0.4549
          CHANNELS 3 Zrotation Xrotation Yrotation
          JOINT Head
          {
            OFFSET 0 12.3537 3.3602
            CHANNELS 3 Zrotation Xrotation Yrotation
            End Site
            {
              OFFSET 0.0001 18.9506 0.5657
            }
          }
        }
        JOINT LeftShoulder
        {
          OFFSET 2.2086 21.1115 7.2329
          CHANNELS 3 Zrotation Xrotation Yrotation
          JOINT LeftArm
          {
            OFFSET 13.1193 3.0282 -4.8998
            CHANNELS 3 Zrotation Xrotation Yrotation
            JOINT LeftForeArm
            {
              OFFSET 27.4081 -0.0973053 -0.2375
              CHANNELS 3 Zrotation Xrotation Yrotation
              JOINT LeftHand
              {
                OFFSET 22.8641 0.0662994 -0.1369
                CHANNELS 3 Zrotation Xrotation Yrotation
                JOINT LeftHandIndex1
                {
                  OFFSET 8.8614 0.775009 2.4612
                  CHANNELS 3 Zrotation Xrotation Yrotation
                  JOINT LeftHandIndex2
                  {
                    OFFSET 3.3146 -0.808304 0.5841
                    CHANNELS 3 Zrotation Xrotation Yrotation
                    JOINT LeftHandIndex3
                    {
                      OFFSET 2.2628 -0.552002 0.3989
                      CHANNELS 3 Zrotation Xrotation Yrotation
                      End Site
                      {
                        OFFSET 1.6102 -0.4807 0.2612
                      }
                    }
                  }
                }
                JOINT LeftHandMiddle1
                {
                  OFFSET 8.9937 0.895004 0.2143
                  CHANNELS 3 Zrotation Xrotation Yrotation
                  JOINT LeftHandMiddle2
                  {
                    OFFSET 4.0984 0.0113983 -0.0242
                    CHANNELS 3 Zrotation Xrotation Yrotation
                    JOINT LeftHandMiddle3
                    {
                      OFFSET 2.2716 0.00689697 -0.0138001
                      CHANNELS 3 Zrotation Xrotation Yrotation
                      End Site
                      {
                        OFFSET 2.0404 -0.1441 0.0027
                      }
                    }
                  }
                }
                JOINT LeftHandRing1
                {
                  OFFSET 8.5234 0.597198 -2.0164
                  CHANNELS 3 Zrotation Xrotation Yrotation
                  JOINT LeftHandRing2
                  {
                    OFFSET 3.7188 -0.188293 -0.2328
                    CHANNELS 3 Zrotation Xrotation Yrotation
                    JOINT LeftHandRing3
                    {
                      OFFSET 2.1191 -0.106598 -0.1332
                      CHANNELS 3 Zrotation Xrotation Yrotation
                      End Site
                      {
                        OFFSET 1.8737 -0.2304 -0.0886
                      }
                    }
                  }
                }
                JOINT LeftHandPinky1
                {
                  OFFSET 7.9094 -0.601089 -3.4825
                  CHANNELS 3 Zrotation Xrotation Yrotation
                  JOINT LeftHandPinky2
                  {
                    OFFSET 2.2874 -0.477005 -0.6314
                    CHANNELS 3 Zrotation Xrotation Yrotation
                    JOINT LeftHandPinky3
                    {
                      OFFSET 1.6774 -0.349396 -0.4633
                      CHANNELS 3 Zrotation Xrotation Yrotation
                      End Site
                      {
                        OFFSET 1.4888 -0.4091 -0.3416
                      }
                    }
                  }
                }
                JOINT LeftHandThumb1
                {
                  OFFSET 1.833 -1.3875 1.3896
                  CHANNELS 3 Zrotation Xrotation Yrotation
                  JOINT LeftHandThumb2
                  {
                    OFFSET 3.4129 -1.121 2.5732
                    CHANNELS 3 Zrotation Xrotation Yrotation
                    JOINT LeftHandThumb3
                    {
                      OFFSET 2.2474 -0.804199 1.6192
                      CHANNELS 3 Zrotation Xrotation Yrotation
                      End Site
                      {
                        OFFSET 1.6527 -0.5689 1.1317
                      }
                    }
                  }
                }
              }
            }
          }
        }
        JOINT RightShoulder
        {
          OFFSET -2.2086 21.1115 7.2329
          CHANNELS 3 Zrotation Xrotation Yrotation
          JOINT RightArm
          {
            OFFSET -13.1216 3.0287 -4.9007
            CHANNELS 3 Zrotation Xrotation Yrotation
            JOINT RightForeArm
            {
              OFFSET -27.4081 -0.0973053 -0.2375
              CHANNELS 3 Zrotation Xrotation Yrotation
              JOINT RightHand
              {
                OFFSET -22.8641 0.0664063 -0.1369
                CHANNELS 3 Zrotation Xrotation Yrotation
                JOINT RightHandIndex1
                {
                  OFFSET -8.8614 0.774994 2.4612
                  CHANNELS 3 Zrotation Xrotation Yrotation
                  JOINT RightHandIndex2
                  {
                    OFFSET -3.3146 -0.808304 0.5841
                    CHANNELS 3 Zrotation Xrotation Yrotation
                    JOINT RightHandIndex3
                    {
                      OFFSET -2.2628 -0.552002 0.3989
                      CHANNELS 3 Zrotation Xrotation Yrotation
                      End Site
                      {
                        OFFSET -1.6102 -0.4807 0.2612
                      }
                    }
                  }
                }
                JOINT RightHandMiddle1
                {
                  OFFSET -8.9937 0.894989 0.2143
                  CHANNELS 3 Zrotation Xrotation Yrotation
                  JOINT RightHandMiddle2
                  {
                    OFFSET -4.0984 0.0113983 -0.0242
                    CHANNELS 3 Zrotation Xrotation Yrotation
                    JOINT RightHandMiddle3
                    {
                      OFFSET -2.2716 0.00691223 -0.0138001
                      CHANNELS 3 Zrotation Xrotation Yrotation
                      End Site
                      {
                        OFFSET -2.0404 -0.1441 0.0027
                      }
                    }
                  }
                }
                JOINT RightHandRing1
                {
                  OFFSET -8.5234 0.597198 -2.0164
                  CHANNELS 3 Zrotation Xrotation Yrotation
                  JOINT RightHandRing2
                  {
                    OFFSET -3.7188 -0.188309 -0.2328
                    CHANNELS 3 Zrotation Xrotation Yrotation
                    JOINT RightHandRing3
                    {
                      OFFSET -2.1191 -0.106598 -0.1332
                      CHANNELS 3 Zrotation Xrotation Yrotation
                      End Site
                      {
                        OFFSET -1.8737 -0.2304 -0.0886
                      }
                    }
                  }
                }
                JOINT RightHandPinky1
                {
                  OFFSET -7.9094 -0.601105 -3.4825
                  CHANNELS 3 Zrotation Xrotation Yrotation
                  JOINT RightHandPinky2
                  {
                    OFFSET -2.2874 -0.477005 -0.6314
                    CHANNELS 3 Zrotation Xrotation Yrotation
                    JOINT RightHandPinky3
                    {
                      OFFSET -1.6774 -0.349396 -0.4633
                      CHANNELS 3 Zrotation Xrotation Yrotation
                      End Site
                      {
                        OFFSET -1.4888 -0.4091 -0.3416
                      }
                    }
                  }
                }
                JOINT RightHandThumb1
                {
                  OFFSET -1.833 -1.38751 1.3896
                  CHANNELS 3 Zrotation Xrotation Yrotation
                  JOINT RightHandThumb2
                  {
                    OFFSET -3.41299 -1.12099 2.5732
                    CHANNELS 3 Zrotation Xrotation Yrotation
                    JOINT RightHandThumb3
                    {
                      OFFSET -2.24741 -0.804108 1.6192
                      CHANNELS 3 Zrotation Xrotation Yrotation
                      End Site
                      {
                        OFFSET -1.6527 -0.5689 1.1317
                      }
                    }
                  }
                }
              }
            }
          }
        }
      }
    }
  }
  JOINT RightUpLeg
  {
    OFFSET -9.1966 3.8861 -0.7581
    CHANNELS 3 Zrotation Xrotation Yrotation
    JOINT RightLeg
    {
      OFFSET -0.7359 -41.0265 0
      CHANNELS 3 Zrotation Xrotation Yrotation
      JOINT RightFoot
      {
        OFFSET 0 -40.2855 0
        CHANNELS 3 Zrotation Xrotation Yrotation
        JOINT RightToeBase
        {
          OFFSET 0 -5.6122 11.7359
          CHANNELS 3 Zrotation Xrotation Yrotation
          End Site
          {
            OFFSET 0 0 7.8731
          }
        }
      }
    }
  }
  JOINT LeftUpLeg
  {
    OFFSET 9.1965 3.8864 -0.7581
    CHANNELS 3 Zrotation Xrotation Yrotation
    JOINT LeftLeg
    {
      OFFSET 0.7359 -41.0268 0
      CHANNELS 3 Zrotation Xrotation Yrotation
      JOINT LeftFoot
      {
        OFFSET 0 -40.2855 0
        CHANNELS 3 Zrotation Xrotation Yrotation
        JOINT LeftToeBase
        {
          OFFSET 0 -5.6122 11.7359
          CHANNELS 3 Zrotation Xrotation Yrotation
          End Site
          {
            OFFSET 0 0 7.8731
          }
        }
      }
    }
  }
}
MOTION
Frames:	4
Frame Time:	0.0333333
5.84602e-005 68.8428 3.50346 0 0 -0 0 0 -0 0 0 -0 0 0 -0 0 0 -0 0 0 -0 0 0 -0 0 0 -0 0 0 -0 0 0 -0 0 0 -0 0 0 -0 0 0 -0 0 0 -0 -0.0146107 -8.87603e-005 -2.63497e-007 2.99804e-018 -2.42657e-020 -1.42182e-022 0 0 -0 -0.0187562 -0.001176 5.858e-005 5.06224e-018 3.88251e-019 1.21329e-020 0 0 -0 -0.012269 -0.00324817 0.000675346 -1.74678e-018 3.88251e-019 -0 0 0 -0 0 0 -0 0 0 -0 0 0 -0 0 0 -0 0 0 -0 0 0 -0 0 0 -0 0 0 -0 0 0 -0 0 0 -0 0.0149955 -9.10982e-005 2.64101e-007 -9.69331e-018 1.21329e-020 -4.7394e-023 0 0 -0 0.0189956 -0.00119102 -5.96516e-005 -5.41541e-019 0 2.42657e-020 0 0 -0 0.0122698 -0.00324857 -0.000673756 -2.00796e-019 0 -1.94126e-019 0 0 -0 0 0 -0 0 0 -0 3.39842 1.33031 -0.0637918 -5.65207e-008 0.834868 -0.000436188 -3.39935 -2.16518 -0.0642563 -8.89002e-024 -1.18485e-023 -1.48106e-024 -3.39844 1.35642 0.0640283 -3.18788e-007 0.782166 -0.000588827 3.39931 -2.13858 0.0634662 1.1399e-023 0 -0 
5.87944 20.3518 3.22246 66.6667 0 -0 -6.67116 -0.142711 0.0436076 -13.3423 -0.289483 0.0703347 -13.3424 -0.289483 0.0703347 -11.4327 19.9815 25.9496 0.0738359 0.0505878 0.0712142 -5.92528 -0.0359678 0.198733 -12.4801 19.8675 28.5939 -0.436903 -0.131484 -70.3792 -39.5668 -0.504733 -0.777148 -4.94546e-007 -4.4262e-007 1.51515e-006 -9.89092e-007 -8.8524e-007 3.0303e-006 -4.94546e-007 -4.4262e-007 1.51515e-006 -4.94546e-007 -4.4262e-007 1.51515e-006 -0.0146238 -9.17249e-005 3.19405e-006 -4.94599e-007 -4.42814e-007 1.5151e-006 -4.94546e-007 -4.4262e-007 1.51515e-006 -0.0187437 -0.00117403 6.48639e-005 -4.946e-007 -4.42872e-007 1.51508e-006 -4.94546e-007 -4.4262e-007 1.51515e-006 -0.0123211 -0.00325939 0.000682642 -4.94551e-007 -4.42792e-007 1.51512e-006 -4.94546e-007 -4.4262e-007 1.51515e-006 -9.89092e-007 -8.8524e-007 3.0303e-006 -4.94546e-007 -4.4262e-007 1.51515e-006 5.9253 -0.144231 -6.22724e-009 21.6727 10.9384 -27.2025 -40.4005 -4.57192 93.07 5.13203 7.84992 -9.6316e-006 -1.25973e-006 1.64791e-007 -3.1335e-007 -1.07472e-006 -2.53228e-007 5.30795e-007 -1.25973e-006 1.64791e-007 -3.1335e-007 -1.25973e-006 1.64791e-007 -3.1335e-007 0.0150101 -8.95554e-005 2.92731e-006 -6.36111e-015 1.23246e-014 -5.56597e-015 -1.25973e-006 1.64791e-007 -3.1335e-007 0.0190052 -0.00118841 -5.0277e-005 -6.36111e-015 3.97569e-016 1.59028e-015 -1.25973e-006 1.64791e-007 -3.1335e-007 0.0122792 -0.00325369 -0.000681453 8.88299e-031 9.14409e-015 -5.56597e-015 -1.25973e-006 1.64791e-007 -3.1335e-007 -1.07472e-006 -2.53228e-007 5.30795e-007 -1.25973e-006 1.64791e-007 -3.1335e-007 -1.71344 -19.3246 -1.91152 2.20705 31.9248 -2.82999 -9.74002 27.5072 2.61322 -8.02763e-008 -3.57717e-006 1.87366e-007 -3.06409 -44.5902 50.9676 -2.51365 43.3114 4.22305 11.0239 24.2091 -2.42512 8.66104e-008 -5.6055e-007 -1.27341e-006 
6.29183 -0.0231681 3.18485 96.6667 0 -0 -9.67249 -0.23046 0.0727979 -19.3449 -0.469875 0.105841 -19.3449 -0.469875 0.105841 -22.687 25.6019 39.7786 0.10689 0.073273 0.103145 -8.59155 -0.0521532 0.288162 -24.5867 24.7126 43.5991 -0.913971 0.173944 -102.048 -56.8714 -1.13235 -1.26741 -8.15927e-007 -1.19014e-006 1.99063e-006 -1.32417e-031 3.18055e-015 2.38542e-015 -5.81644e-007 -2.02283e-007 6.12256e-007 -8.15927e-007 -1.19014e-006 1.99063e-006 -0.0146046 -8.64286e-005 2.16421e-006 -8.14907e-007 -1.19039e-006 1.99048e-006 -8.15927e-007 -1.19014e-006 1.99063e-006 -0.0187604 -0.00118296 6.23434e-005 -5.8311e-007 -2.02475e-007 6.12234e-007 -8.15927e-007 -1.19014e-006 1.99063e-006 -0.012262 -0.00324977 0.000675856 -5.82591e-007 -2.026e-007 6.12304e-007 -8.15927e-007 -1.19014e-006 1.99063e-006 -1.32417e-031 3.18055e-015 2.38542e-015 -5.81644e-007 -2.02283e-007 6.12256e-007 8.59169 -0.209135 1.87083e-007 34.6763 13.7904 -40.044 -54.5393 -47.7719 99.5096 7.44152 11.3824 -9.41687e-006 -1.19582e-006 -9.6043e-009 1.66637e-007 -1.19582e-006 -9.6041e-009 1.66637e-007 -1.19582e-006 -9.60433e-009 1.66637e-007 -1.19582e-006 -9.6043e-009 1.66637e-007 0.0150094 -9.09562e-005 3.20638e-007 -1.19582e-006 -9.5823e-009 1.66639e-007 -1.19582e-006 -9.6043e-009 1.66637e-007 0.0190107 -0.00119113 -6.61701e-005 -1.19582e-006 -9.5773e-009 1.66651e-007 -1.19582e-006 -9.6043e-009 1.66637e-007 0.0122772 -0.00325048 -0.000676527 -1.19582e-006 -9.59339e-009 1.66672e-007 -1.19582e-006 -9.6043e-009 1.66637e-007 -1.19582e-006 -9.6041e-009 1.66637e-007 -1.19582e-006 -9.60433e-009 1.66637e-007 -4.47253 -30.2997 -3.06534 4.31786 49.1781 -5.0243 -13.7663 39.2218 4.05996 -5.96354e-016 0 -2.98177e-016 16.8932 -41.0749 83.0855 -4.45756 58.4863 5.67733 14.7237 38.3571 -2.60669 -5.03209e-006 -1.18802e-006 4.04042e-006 
6.34914 4.49346 3.18665 90 0 -0 -9.00552 -0.209718 0.0656923 -18.0111 -0.427025 0.097722 -18.0111 -0.427025 0.0977219 -19.983 24.6539 36.6701 0.0992686 0.0680445 0.095787 -7.99905 -0.0485561 0.268289 -21.6131 23.9758 40.1689 -1.41344 0.115787 -95.0099 -51.9056 -1.88476 -1.46821 -3.53113e-031 -6.36111e-015 -3.18055e-015 3.61389e-006 -2.22981e-006 7.30678e-007 3.18055e-015 -3.18055e-015 -1.19271e-014 -3.53113e-031 -6.36111e-015 -3.18055e-015 -0.0146061 -9.40773e-005 -1.8364e-006 0 0 -1.59028e-015 -3.53113e-031 -6.36111e-015 -3.18055e-015 -0.018747 -0.00117418 5.66086e-005 3.18055e-015 -3.18055e-015 -2.38542e-015 -3.53113e-031 -6.36111e-015 -3.18055e-015 -0.0122798 -0.00324996 0.000673993 -2.64834e-031 -3.18055e-015 -4.77083e-015 -3.53113e-031 -6.36111e-015 -3.18055e-015 3.61389e-006 -2.22981e-006 7.30678e-007 3.18055e-015 -3.18055e-015 -1.19271e-014 7.99917 -0.194711 -6.39134e-008 31.6469 13.3236 -37.163 -50.8993 -37.5416 101.169 6.92849 10.5974 1.97001e-005 -8.76632e-007 1.50651e-006 4.06369e-008 7.95139e-016 -2.23633e-015 1.98785e-016 -3.86501e-007 2.56168e-007 1.68994e-007 -8.76632e-007 1.50651e-006 4.06369e-008 0.0150137 -9.26479e-005 -1.99243e-006 -3.0291e-007 -2.94878e-007 5.44288e-008 -8.76632e-007 1.50651e-006 4.06369e-008 0.0189831 -0.00118959 -6.46002e-005 -3.84875e-007 2.56094e-007 1.6895e-007 -8.76632e-007 1.50651e-006 4.06369e-008 0.0122677 -0.00324713 -0.000680887 -3.02906e-007 -2.9488e-007 5.44302e-008 -8.76632e-007 1.50651e-006 4.06369e-008 7.95139e-016 -2.23633e-015 1.98785e-016 -3.86501e-007 2.56168e-007 1.68994e-007 -3.86933 -27.9021 -2.7853 3.76494 45.4451 -4.42757 -12.7658 36.5694 3.68287 -2.21407e-006 -3.85636e-007 4.27242e-006 13.0212 -43.3177 77.0772 -3.89377 55.1171 5.02202 13.7404 35.2696 -2.31006 -9.42051e-008 -1.82743e-007 5.70976e-008 
